<svg id="SvgjsSvg1014" xmlns="http://www.w3.org/2000/svg" version="1.1" xmlns:xlink="http://www.w3.org/1999/xlink" xmlns:svgjs="http://svgjs.com/svgjs" width="15" height="15"><defs id="SvgjsDefs1015"></defs><path id="SvgjsPath1016" d="M870.428 1767L870.428 1761.34C870.428 1759.97 869.875 1759.1799999999998 869.008 1759.1799999999998C868.254 1759.1799999999998 867.543 1759.56 867.169 1760.1599999999999C867.048 1760.36 866.965 1760.8 866.965 1761.1L866.965 1766.9699999999998L864 1766.9999999999998L864 1755.9999999999998L866.595 1756.1799999999998L866.744 1758.06L866.808 1758.06C867.231 1757.3 868.274 1756.35 870.0169999999999 1756.35C872.1389999999999 1756.35 874.007 1757.79 874.007 1760.9199999999998L874.007 1766.9699999999998ZM859 1756L862 1756L862 1767L859 1766.97ZM862.454 1753.64C862.4319999999999 1752.71 861.795 1751.99 860.756 1751.99C859.7149999999999 1751.99 859.034 1752.71 859.034 1753.64C859.034 1754.5600000000002 859.694 1755.3000000000002 860.711 1755.3000000000002C861.795 1755.3000000000002 862.4540000000001 1754.5600000000002 862.4540000000001 1753.64Z " fill="#ffffff" transform="matrix(1,0,0,1,-859,-1752)"></path></svg>
