<svg id="SvgjsSvg1011" xmlns="http://www.w3.org/2000/svg" version="1.1" xmlns:xlink="http://www.w3.org/1999/xlink" xmlns:svgjs="http://svgjs.com/svgjs" width="19" height="18"><defs id="SvgjsDefs1012"></defs><path id="SvgjsPath1013" d="M820.761 1752L825.4879999999999 1752L824.0279999999999 1752.85L822.5679999999999 1752.85C823.0789999999998 1753.1799999999998 823.4759999999999 1753.6299999999999 823.7569999999998 1754.2199999999998C824.0389999999999 1754.7999999999997 824.1789999999999 1755.4099999999999 824.1789999999999 1756.0499999999997C824.1789999999999 1756.5799999999997 824.0959999999999 1757.0499999999997 823.9299999999998 1757.4699999999998C823.7639999999998 1757.8799999999999 823.5629999999999 1758.2199999999998 823.3249999999998 1758.4699999999998C823.0869999999998 1758.7199999999998 822.8489999999998 1758.9499999999998 822.6109999999998 1759.1699999999998C822.3729999999997 1759.3799999999999 822.1709999999997 1759.6 822.0049999999998 1759.83C821.8389999999997 1760.05 821.7559999999997 1760.3 821.7559999999997 1760.56C821.7559999999997 1760.74 821.8149999999997 1760.9299999999998 821.9349999999997 1761.11C822.0539999999997 1761.29 822.2079999999997 1761.4599999999998 822.3999999999997 1761.6299999999999C822.5909999999998 1761.79 822.8019999999998 1761.9699999999998 823.0319999999997 1762.1499999999999C823.2629999999997 1762.33 823.4939999999997 1762.53 823.7249999999997 1762.7499999999998C823.9559999999997 1762.9699999999998 824.1659999999997 1763.2099999999998 824.3579999999997 1763.4599999999998C824.5489999999998 1763.7199999999998 824.7039999999997 1764.0199999999998 824.8229999999998 1764.3799999999999C824.9419999999998 1764.7399999999998 825.0009999999997 1765.12 825.0009999999997 1765.53C825.0009999999997 1766.69 824.4959999999998 1767.7 823.4869999999997 1768.58C822.3909999999997 1769.53 820.8759999999997 1770 818.9439999999997 1770C818.5179999999997 1770 818.0869999999998 1769.96 817.6509999999997 1769.89C817.2149999999997 1769.8200000000002 816.7749999999997 1769.7 816.3309999999997 1769.5300000000002C815.8879999999997 1769.3600000000001 815.4959999999996 1769.15 815.1579999999997 1768.9C814.8189999999996 1768.65 814.5409999999997 1768.3300000000002 814.3249999999997 1767.94C814.1079999999997 1767.55 813.9999999999997 1767.1100000000001 813.9999999999997 1766.63C813.9999999999997 1766.19 814.1339999999997 1765.7 814.3999999999996 1765.16C814.6309999999996 1764.7 814.9769999999996 1764.3000000000002 815.4389999999996 1763.97C815.8999999999996 1763.63 816.4229999999997 1763.38 817.0069999999996 1763.2C817.5919999999996 1763.02 818.1499999999996 1762.89 818.6839999999996 1762.81C819.2179999999996 1762.73 819.7589999999997 1762.6799999999998 820.3059999999996 1762.6699999999998C819.8449999999996 1762.07 819.6139999999996 1761.5299999999997 819.6139999999996 1761.05C819.6139999999996 1760.97 819.6219999999996 1760.8799999999999 819.6359999999996 1760.8C819.6499999999996 1760.72 819.6679999999997 1760.6499999999999 819.6899999999996 1760.59C819.7119999999996 1760.53 819.7399999999996 1760.4499999999998 819.7759999999996 1760.36C819.8129999999996 1760.26 819.8379999999996 1760.1799999999998 819.8519999999996 1760.12C819.5639999999996 1760.1599999999999 819.3109999999996 1760.1799999999998 819.0949999999997 1760.1799999999998C818.0209999999997 1760.1799999999998 817.0989999999997 1759.82 816.3309999999997 1759.12C815.5629999999996 1758.4099999999999 815.1789999999996 1757.52 815.1789999999996 1756.4599999999998C815.1789999999996 1755.4499999999998 815.5219999999996 1754.5399999999997 816.2069999999997 1753.7499999999998C816.8919999999996 1752.9499999999998 817.7359999999996 1752.4399999999998 818.7379999999996 1752.2199999999998C819.4159999999996 1752.0699999999997 820.0899999999996 1751.9999999999998 820.7609999999996 1751.9999999999998ZM823.476 1766.46C823.476 1766.31 823.46 1766.17 823.427 1766.02C823.395 1765.8799999999999 823.361 1765.75 823.325 1765.6399999999999C823.288 1765.52 823.226 1765.3899999999999 823.135 1765.2599999999998C823.045 1765.1299999999997 822.9689999999999 1765.0199999999998 822.908 1764.9299999999998C822.847 1764.84 822.751 1764.7399999999998 822.6220000000001 1764.61C822.4920000000001 1764.49 822.393 1764.3999999999999 822.3240000000001 1764.34C822.2560000000001 1764.28 822.1400000000001 1764.1799999999998 821.9780000000001 1764.06C821.815 1763.94 821.7040000000001 1763.86 821.642 1763.81C821.581 1763.77 821.4620000000001 1763.69 821.2860000000001 1763.56C821.109 1763.44 820.999 1763.37 820.955 1763.34C820.8330000000001 1763.32 820.653 1763.31 820.4150000000001 1763.31C820.0250000000001 1763.31 819.643 1763.34 819.268 1763.3899999999999C818.893 1763.4399999999998 818.504 1763.53 818.1 1763.6599999999999C817.696 1763.79 817.3430000000001 1763.9599999999998 817.0400000000001 1764.1599999999999C816.7370000000001 1764.36 816.488 1764.6299999999999 816.2930000000001 1764.9699999999998C816.0990000000002 1765.3099999999997 816.0010000000001 1765.6899999999998 816.0010000000001 1766.1299999999999C816.0010000000001 1766.62 816.1290000000001 1767.06 816.3850000000001 1767.4399999999998C816.6410000000001 1767.83 816.9770000000001 1768.1299999999999 817.3910000000001 1768.35C817.806 1768.57 818.2410000000001 1768.73 818.695 1768.84C819.149 1768.9499999999998 819.6070000000001 1769 820.0690000000001 1769C820.494 1769 820.9000000000001 1768.96 821.2860000000001 1768.87C821.671 1768.78 822.0340000000001 1768.6399999999999 822.373 1768.4499999999998C822.7120000000001 1768.2599999999998 822.98 1767.9899999999998 823.1790000000001 1767.6499999999999C823.3770000000001 1767.31 823.4760000000001 1766.9199999999998 823.4760000000001 1766.4599999999998ZM822.178 1757.14C822.178 1756.71 822.118 1756.25 822 1755.76C821.881 1755.27 821.711 1754.8 821.491 1754.35C821.271 1753.8899999999999 820.968 1753.52 820.582 1753.2199999999998C820.197 1752.9299999999998 819.766 1752.7799999999997 819.29 1752.7799999999997C818.6189999999999 1752.7799999999997 818.0999999999999 1753.0299999999997 817.732 1753.5299999999997C817.3639999999999 1754.0199999999998 817.18 1754.6199999999997 817.18 1755.3099999999997C817.18 1755.6499999999996 817.222 1756.0099999999998 817.305 1756.3799999999997C817.3879999999999 1756.7599999999998 817.516 1757.1299999999997 817.689 1757.5099999999998C817.862 1757.8799999999997 818.064 1758.2199999999998 818.295 1758.5199999999998C818.525 1758.8199999999997 818.8069999999999 1759.0599999999997 819.1379999999999 1759.2499999999998C819.4699999999999 1759.4399999999998 819.8199999999999 1759.5299999999997 820.1879999999999 1759.5299999999997C820.8869999999998 1759.5299999999997 821.3939999999999 1759.3099999999997 821.7079999999999 1758.8699999999997C822.0209999999998 1758.4399999999996 822.1779999999999 1757.8599999999997 822.1779999999999 1757.1399999999996ZM830 1755L830 1752L829 1752L829 1755L826 1755L826 1756L829 1756L829 1759L830 1759L830 1756L833 1756L833 1755Z " fill="#ffffff" transform="matrix(1,0,0,1,-814,-1752)"></path></svg>
