<svg id="SvgjsSvg1011" xmlns="http://www.w3.org/2000/svg" version="1.1" xmlns:xlink="http://www.w3.org/1999/xlink" xmlns:svgjs="http://svgjs.com/svgjs" width="20" height="25"><defs id="SvgjsDefs1012"></defs><path id="SvgjsPath1013" d="M360.771 406.814C360.74 403.692 363.31800000000004 402.194 363.433 402.12C361.984 400 359.728 399.71 358.925 399.677C357.004 399.482 355.177 400.807 354.204 400.807C353.232 400.807 351.72700000000003 399.704 350.135 399.735C348.043 399.765 346.113 400.951 345.03499999999997 402.826C342.861 406.59900000000005 344.47799999999995 412.18800000000005 346.597 415.24800000000005C347.633 416.74600000000004 348.868 418.42900000000003 350.48999999999995 418.36800000000005C352.04999999999995 418.3070000000001 352.64099999999996 417.35900000000004 354.52899999999994 417.35900000000004C356.41599999999994 417.35900000000004 356.94699999999995 418.36800000000005 358.59899999999993 418.33700000000005C360.27899999999994 418.3070000000001 361.34399999999994 416.81100000000004 362.37199999999996 415.30800000000005C363.561 413.571 364.04999999999995 411.88800000000003 364.08099999999996 411.8020000000001C364.04299999999995 411.7850000000001 360.804 410.5440000000001 360.77099999999996 406.8140000000001ZM354.009 399.396C353.822 397.98 354.52000000000004 396.504 355.31800000000004 395.58000000000004C356.20700000000005 394.53800000000007 357.71000000000004 393.76300000000003 358.949 393.71400000000006C359.108 395.1580000000001 358.527 396.607 357.66700000000003 397.65000000000003C356.805 398.692 355.39300000000003 399.504 354.009 399.396Z " fill="#f4f4f4" transform="matrix(1,0,0,1,-344,-394)"></path></svg>
