<svg id="SvgjsSvg1017" xmlns="http://www.w3.org/2000/svg" version="1.1" xmlns:xlink="http://www.w3.org/1999/xlink" xmlns:svgjs="http://svgjs.com/svgjs" width="18" height="22"><defs id="SvgjsDefs1018"></defs><path id="SvgjsPath1019" d="M918.693 1759.36C918.473 1758.3999999999999 917.689 1757.6799999999998 916.746 1757.58C914.513 1757.33 912.2529999999999 1757.32 910.0029999999999 1757.33C907.752 1757.32 905.492 1757.33 903.2589999999999 1757.58C902.3159999999999 1757.6799999999998 901.5329999999999 1758.3999999999999 901.3129999999999 1759.36C900.9989999999999 1760.74 900.9949999999999 1762.24 900.9949999999999 1763.6599999999999C900.9949999999999 1765.08 900.9949999999999 1766.58 901.3089999999999 1767.9599999999998C901.5289999999999 1768.9299999999998 902.3119999999999 1769.6399999999999 903.2549999999999 1769.7499999999998C905.4879999999998 1769.9999999999998 907.7479999999999 1769.9999999999998 909.9989999999999 1769.9999999999998C912.2489999999999 1769.9999999999998 914.5089999999999 1769.9999999999998 916.7429999999999 1769.7499999999998C917.685 1769.6399999999999 918.4689999999999 1768.9299999999998 918.689 1767.9599999999998C919.0029999999999 1766.5799999999997 919.005 1765.0799999999997 919.005 1763.6599999999999C919.005 1762.2399999999998 919.006 1760.7399999999998 918.693 1759.36ZM903.94403 1748.13L903.897 1748.13C904.154 1748.9 904.422 1749.66 904.6790000000001 1750.43C905.07 1751.5700000000002 905.3140000000001 1752.44 905.4240000000001 1753.03L905.4240000000001 1756.36L906.6440000000001 1756.36L906.6440000000001 1756.2199999999998L906.6470000000002 1756.2199999999998L906.6470000000002 1753.0199899999998L908.1120000000002 1748.1299999999999L908.0750000000002 1748.1299999999999L908.1140000000001 1747.9999999999998L906.8810000000002 1747.9999999999998L906.0490000000002 1751.2299999999998L905.1840000000002 1747.9999999999998L903.9000000000002 1747.9999999999998C903.9146400000002 1748.0432999999998 903.9293200000002 1748.0866399999998 903.9440300000002 1748.1299999999999ZM906.132 1760.6L904.829 1760.6L904.829 1767.6L903.6179999999999 1767.6L903.6179999999999 1760.6L902.338 1760.6L902.338 1759.4599999999998L906.132 1759.4599999999998ZM913.555 1765.78C913.555 1766.34 913.5179999999999 1766.74 913.4449999999999 1767C913.3 1767.45 913.0089999999999 1767.68 912.5749999999999 1767.68C912.188 1767.68 911.814 1767.46 911.4509999999999 1767.01L911.4509999999999 1767.6L910.3619999999999 1767.6L910.3619999999999 1759.4599999999998L911.4509999999999 1759.4599999999998L911.4509999999999 1762.12C911.8019999999999 1761.6799999999998 912.175 1761.4599999999998 912.5749999999999 1761.4599999999998C913.0089999999999 1761.4599999999998 913.3 1761.6899999999998 913.4449999999999 1762.1399999999999C913.5179999999999 1762.3899999999999 913.555 1762.79 913.555 1763.36ZM908.12401 1752.07898C908.12267 1752.12823 908.122 1752.17857 908.122 1752.23L908.122 1754.3700000000001C908.122 1755.0300000000002 908.232 1755.5100000000002 908.466 1755.8200000000002C908.77 1756.2300000000002 909.198 1756.44 909.745 1756.44C910.297 1756.44 910.725 1756.23 911.029 1755.8200000000002C911.24857 1755.5253400000001 911.35882 1755.0770900000002 911.36919 1754.4666700000002C911.3724 1754.3935600000002 911.374 1754.3180100000002 911.374 1754.2400000000002L911.374 1752.0900000000001C911.374 1751.44 911.263 1750.96 911.033 1750.65C910.7280000000001 1750.23 910.301 1750.02 909.749 1750.02C909.202 1750.02 908.773 1750.23 908.469 1750.65C908.2363200000001 1750.9582400000002 908.12526 1751.4345700000001 908.12401 1752.07898ZM917.662 1764.77L915.486 1764.77L915.486 1765.84C915.486 1766.3999999999999 915.668 1766.6799999999998 916.042 1766.6799999999998C916.3090000000001 1766.6799999999998 916.466 1766.5399999999997 916.528 1766.2399999999998C916.538 1766.1799999999998 916.552 1765.9399999999998 916.552 1765.4999999999998L917.662 1765.4999999999998L917.662 1765.6599999999999C917.662 1766.0099999999998 917.649 1766.2499999999998 917.639 1766.37C917.602 1766.61 917.517 1766.83 917.385 1767.02C917.084 1767.46 916.637 1767.68 916.069 1767.68C915.4989999999999 1767.68 915.0659999999999 1767.47 914.751 1767.0600000000002C914.521 1766.7600000000002 914.4019999999999 1766.2800000000002 914.4019999999999 1765.63L914.4019999999999 1763.5100000000002C914.4019999999999 1762.8600000000001 914.507 1762.3900000000003 914.7379999999999 1762.0800000000002C915.053 1761.66 915.486 1761.4600000000003 916.0419999999999 1761.4600000000003C916.588 1761.4600000000003 917.021 1761.6600000000003 917.3259999999999 1762.0800000000002C917.5529999999999 1762.39 917.6619999999999 1762.8600000000001 917.6619999999999 1763.5100000000002ZM914.338 1750.23L914.338 1754.78431C914.09609 1755.13139 913.8651 1755.3 913.6469999999999 1755.3C913.4989999999999 1755.3 913.4129999999999 1755.21 913.3889999999999 1755.04C913.3759999999999 1755 913.3759999999999 1754.87 913.3759999999999 1754.61L913.3759999999999 1750.1L912.2789999999999 1750.1L912.2789999999999 1750.23L912.2759999999998 1750.23L912.2759999999998 1755.08C912.2759999999998 1755.51 912.3129999999999 1755.8 912.3739999999998 1755.99C912.4829999999998 1756.3 912.7269999999997 1756.44 913.0819999999998 1756.44C913.4829999999997 1756.44 913.8999999999997 1756.2 914.3379999999997 1755.69L914.3379999999997 1756.3600000000001L915.4379999999998 1756.3600000000001L915.4379999999998 1756.22L915.4419999999998 1756.22L915.4419999999998 1750.1000000000001L914.3409999999998 1750.1000000000001L914.3409999999998 1750.2300000000002ZM909.421 1767.6L908.331 1767.6L908.331 1766.9399999999998C907.899 1767.4399999999998 907.488 1767.6799999999998 907.088 1767.6799999999998C906.737 1767.6799999999998 906.495 1767.5399999999997 906.386 1767.2299999999998C906.327 1767.0499999999997 906.2909999999999 1766.7599999999998 906.2909999999999 1766.3299999999997L906.2909999999999 1761.5299999999997L907.3779999999999 1761.5299999999997L907.3779999999999 1765.9999999999998C907.3779999999999 1766.2499999999998 907.3779999999999 1766.3899999999999 907.3889999999999 1766.4199999999998C907.4149999999998 1766.6 907.4979999999999 1766.6799999999998 907.6429999999999 1766.6799999999998C907.862 1766.6799999999998 908.0899999999999 1766.5099999999998 908.3309999999999 1766.1699999999998L908.3309999999999 1761.5299999999997L909.4209999999999 1761.5299999999997ZM909.224 1751.87637C909.24819 1751.3973799999999 909.4189700000001 1751.1499999999999 909.745 1751.1499999999999C910.1 1751.1499999999999 910.271 1751.4399999999998 910.271 1751.9999999999998L910.271 1754.5758999999998C910.24687 1755.0612599999997 910.0767999999999 1755.2999999999997 909.7489999999999 1755.2999999999997C909.3939999999999 1755.2999999999997 909.2239999999999 1755.0199999999998 909.2239999999999 1754.4499999999998ZM911.993 1762.45C911.8140000000001 1762.45 911.633 1762.53 911.451 1762.71L911.451 1766.41C911.633 1766.6000000000001 911.8140000000001 1766.68 911.993 1766.68C912.307 1766.68 912.4670000000001 1766.41 912.4670000000001 1765.8600000000001L912.4670000000001 1763.2800000000002C912.4670000000001 1762.7300000000002 912.3070000000001 1762.4500000000003 911.993 1762.4500000000003ZM916.032 1762.45C915.668 1762.45 915.486 1762.73 915.486 1763.29L915.486 1763.85L916.574 1763.85L916.574 1763.29C916.574 1762.73 916.3919999999999 1762.45 916.0319999999999 1762.45Z " fill="#ffffff" transform="matrix(1,0,0,1,-901,-1748)"></path></svg>
