<svg id="SvgjsSvg1014" xmlns="http://www.w3.org/2000/svg" version="1.1" xmlns:xlink="http://www.w3.org/1999/xlink" xmlns:svgjs="http://svgjs.com/svgjs" width="43" height="43"><defs id="SvgjsDefs1015"></defs><path id="SvgjsPath1016" d="M390.003 722.241L390.003 716.74L385.40799999999996 716.372C385.24199999999996 715.467 385.00699999999995 714.586 384.705 713.736L388.498 711.122L385.747 706.3589999999999L381.582 708.3389999999999C380.99 707.646 380.347 707.0029999999999 379.655 706.4119999999999L381.635 702.2459999999999L376.871 699.4959999999999L374.257 703.2889999999999C373.407 702.9869999999999 372.526 702.7519999999998 371.621 702.5859999999999L371.25199999999995 697.9909999999999L365.75199999999995 697.9909999999999L365.38399999999996 702.5859999999999C364.479 702.752 363.59799999999996 702.9869999999999 362.74799999999993 703.2889999999999L360.13399999999996 699.4969999999998L355.36999999999995 702.2459999999999L357.34999999999997 706.4119999999999C356.65799999999996 707.0029999999999 356.01399999999995 707.646 355.42299999999994 708.3389999999999L351.2579999999999 706.3589999999999L348.5079999999999 711.1229999999999L352.2999999999999 713.736C351.9979999999999 714.586 351.7639999999999 715.467 351.5979999999999 716.3729999999999L347.0029999999999 716.741L347.0029999999999 722.241L351.5979999999999 722.609C351.7639999999999 723.514 351.9979999999999 724.395 352.2999999999999 725.245L348.5089999999999 727.859L351.2589999999999 732.6220000000001L355.4229999999999 730.643C356.0139999999999 731.335 356.6589999999999 731.98 357.3509999999999 732.57L355.37099999999987 736.735L360.1349999999999 739.485L362.7479999999999 735.693C363.5979999999999 735.995 364.47899999999987 736.23 365.3839999999999 736.396L365.7519999999999 740.991L371.2529999999999 740.991L371.62099999999987 736.396C372.52599999999984 736.2299999999999 373.40699999999987 735.995 374.2569999999999 735.693L376.87099999999987 739.485L381.6349999999999 736.735L379.65499999999986 732.57C380.34699999999987 731.979 380.9909999999999 731.335 381.5819999999999 730.642L385.7469999999999 732.6220000000001L388.4979999999999 727.859L384.70499999999987 725.245C385.0069999999999 724.394 385.24199999999985 723.514 385.40799999999984 722.609ZM368.503 723.791C366.128 723.791 364.203 721.8660000000001 364.203 719.4910000000001C364.203 717.1160000000001 366.128 715.1910000000001 368.503 715.1910000000001C370.878 715.1910000000001 372.803 717.1160000000001 372.803 719.4910000000001C372.803 721.8660000000001 370.878 723.791 368.503 723.791Z " fill="#ffffff" transform="matrix(1,0,0,1,-347,-698)"></path></svg>
