<svg id="SvgjsSvg1008" xmlns="http://www.w3.org/2000/svg" version="1.1" xmlns:xlink="http://www.w3.org/1999/xlink" xmlns:svgjs="http://svgjs.com/svgjs" width="20" height="20"><defs id="SvgjsDefs1009"></defs><path id="SvgjsPath1010" d="M788 1760C788 1761.81 787.553 1763.49 786.659 1765.02C785.765 1766.55 784.552 1767.76 783.02 1768.66C781.4879999999999 1769.5500000000002 779.814 1770 778 1770C777.037 1770 776.09 1769.86 775.162 1769.58C775.674 1768.78 776.0120000000001 1768.06 776.177 1767.4499999999998C776.255 1767.1499999999999 776.49 1766.2399999999998 776.88 1764.6999999999998C777.054 1765.0399999999997 777.371 1765.33 777.831 1765.58C778.291 1765.83 778.7860000000001 1765.9499999999998 779.315 1765.9499999999998C780.365 1765.9499999999998 781.3030000000001 1765.6499999999999 782.128 1765.0599999999997C782.952 1764.4599999999998 783.59 1763.6499999999996 784.042 1762.5999999999997C784.493 1761.5599999999997 784.719 1760.3899999999996 784.719 1759.0899999999997C784.719 1758.0999999999997 784.461 1757.1699999999996 783.9440000000001 1756.2999999999997C783.4280000000001 1755.4299999999998 782.6790000000001 1754.7299999999998 781.6980000000001 1754.1799999999998C780.7170000000001 1753.6299999999999 779.6100000000001 1753.36 778.378 1753.36C777.466 1753.36 776.6160000000001 1753.49 775.826 1753.74C775.0360000000001 1753.99 774.365 1754.32 773.8140000000001 1754.74C773.263 1755.16 772.7890000000001 1755.64 772.3950000000001 1756.18C772.0000000000001 1756.72 771.7090000000001 1757.28 771.522 1757.8700000000001C771.336 1758.45 771.2420000000001 1759.0300000000002 771.2420000000001 1759.6100000000001C771.2420000000001 1760.5100000000002 771.416 1761.3100000000002 771.763 1761.9900000000002C772.11 1762.6800000000003 772.618 1763.1600000000003 773.287 1763.4400000000003C773.547 1763.5400000000002 773.712 1763.4500000000003 773.7810000000001 1763.1800000000003C773.7990000000001 1763.1200000000003 773.8340000000001 1762.9800000000002 773.8850000000001 1762.7700000000002C773.9380000000001 1762.5600000000002 773.9720000000001 1762.4400000000003 773.9900000000001 1762.38C774.0420000000001 1762.18 773.9940000000001 1762 773.8460000000001 1761.8200000000002C773.4040000000001 1761.2900000000002 773.1820000000001 1760.64 773.1820000000001 1759.8600000000001C773.1820000000001 1758.5500000000002 773.6360000000001 1757.42 774.5430000000001 1756.48C775.4500000000002 1755.54 776.6370000000002 1755.06 778.1040000000002 1755.06C779.4150000000002 1755.06 780.4370000000001 1755.4199999999998 781.1710000000002 1756.1299999999999C781.9040000000001 1756.84 782.2710000000002 1757.77 782.2710000000002 1758.9099999999999C782.2710000000002 1760.3799999999999 781.9730000000002 1761.6399999999999 781.3790000000001 1762.6699999999998C780.7850000000001 1763.6999999999998 780.0230000000001 1764.2199999999998 779.0940000000002 1764.2199999999998C778.5640000000002 1764.2199999999998 778.1390000000001 1764.0299999999997 777.8180000000002 1763.6499999999999C777.4970000000002 1763.28 777.3970000000002 1762.82 777.5180000000003 1762.29C777.5880000000003 1761.99 777.7030000000002 1761.58 777.8630000000003 1761.07C778.0240000000002 1760.57 778.1540000000003 1760.12 778.2540000000002 1759.73C778.3540000000003 1759.35 778.4040000000002 1759.02 778.4040000000002 1758.75C778.4040000000002 1758.32 778.2870000000003 1757.96 778.0520000000002 1757.67C777.8180000000002 1757.38 777.4840000000003 1757.24 777.0490000000002 1757.24C776.5110000000002 1757.24 776.0560000000002 1757.49 775.6820000000002 1757.98C775.3090000000002 1758.48 775.1230000000003 1759.09 775.1230000000003 1759.83C775.1230000000003 1760.46 775.2310000000002 1760.99 775.4480000000003 1761.4199999999998L774.1590000000003 1766.86C774.0110000000003 1767.4699999999998 773.9550000000004 1768.24 773.9900000000004 1769.1699999999998C772.2010000000004 1768.3799999999999 770.7560000000003 1767.1599999999999 769.6540000000003 1765.5099999999998C768.5510000000004 1763.8599999999997 768.0000000000003 1762.0199999999998 768.0000000000003 1759.9999999999998C768.0000000000003 1758.1899999999998 768.4470000000003 1756.5099999999998 769.3410000000003 1754.9799999999998C770.2350000000004 1753.4499999999998 771.4490000000003 1752.2399999999998 772.9810000000003 1751.3399999999997C774.5120000000003 1750.4499999999996 776.1860000000004 1749.9999999999998 778.0000000000003 1749.9999999999998C779.8140000000003 1749.9999999999998 781.4880000000004 1750.4499999999998 783.0200000000003 1751.3399999999997C784.5520000000004 1752.2399999999998 785.7650000000003 1753.4499999999996 786.6590000000003 1754.9799999999998C787.5530000000003 1756.5099999999998 788.0000000000003 1758.1899999999998 788.0000000000003 1759.9999999999998Z " fill="#ffffff" transform="matrix(1,0,0,1,-768,-1750)"></path></svg>
