<svg id="SvgjsSvg1020" xmlns="http://www.w3.org/2000/svg" version="1.1" xmlns:xlink="http://www.w3.org/1999/xlink" xmlns:svgjs="http://svgjs.com/svgjs" width="47" height="47"><defs id="SvgjsDefs1021"></defs><path id="SvgjsPath1022" d="M1227.5 697C1234.75297 697 1241.23783 700.28503 1245.54837 705.44832C1246.16977 705.1143999999999 1246.55088 704.83535 1246.02 705.233C1245.85283 705.35822 1245.76627 705.5069199999999 1245.73308 705.67237C1249.02597 709.71676 1251 714.87776 1251 720.5C1251 733.479 1240.48 744 1227.5 744C1214.52 744 1204 733.479 1204 720.5C1204 707.521 1214.52 697 1227.5 697ZM1209.88 720.5C1209.88 730.234 1217.7700000000002 738.125 1227.5 738.125C1237.23 738.125 1245.13 730.234 1245.13 720.5C1245.13 720.00917 1245.1099100000001 719.52302 1245.0705200000002 719.04233C1243.8658800000003 719.43029 1242.0601800000002 719.55206 1241.9100000000003 720.133C1241.4900000000002 721.806 1238.7000000000003 722.061 1238.7000000000003 722.061C1238.7000000000003 722.061 1235.3000000000002 724.7230000000001 1234.5700000000002 724.172C1233.8300000000002 723.621 1235.39 719.307 1236.13 719.0310000000001C1236.8600000000001 718.7560000000001 1236.13 716.8280000000001 1236.13 716.277C1236.13 716.02012 1233.3127000000002 711.7341 1233.36992 711.7789300000001C1232.89003 711.39457 1233.1000700000002 707.73999 1234.2900000000002 707.648C1235.4900000000002 707.557 1239.4300000000003 708.291 1238.7000000000003 709.576C1238.4324900000004 710.04052 1239.0300900000002 709.9772300000001 1239.8720400000002 709.73305C1239.9888900000003 709.56401 1240.1385700000003 709.3848 1240.3100000000002 709.128C1240.43377 708.94259 1240.4912500000003 708.77191 1240.5132 708.61156C1237.28855 705.0862400000001 1232.6506800000002 702.875 1227.5 702.875C1217.77 702.875 1209.88 710.766 1209.88 720.5ZM1223.28 710.035C1222.33852 711.1622199999999 1222.4547499999999 711.61659 1222.5972 711.76689C1222.5149999999999 711.7416499999999 1222.3828099999998 711.7125599999999 1222.1799999999998 711.687C1220.7099999999998 711.504 1220.7999999999997 715.91 1221.4399999999998 716.644C1222.08 717.379 1222.36 718.572 1223.2799999999997 717.746C1224.6499999999996 717.746 1222.9099999999999 717.93 1225.3899999999996 718.2049999999999C1227.8699999999997 718.4799999999999 1228.0499999999997 717.5619999999999 1227.9599999999996 719.4899999999999C1227.8699999999997 721.4179999999999 1226.4899999999996 721.6929999999999 1226.2099999999996 722.7949999999998C1225.9399999999996 723.8959999999998 1224.8399999999997 725.4569999999999 1225.0199999999995 726.3749999999999C1225.2099999999996 727.2929999999999 1225.1099999999994 727.6599999999999 1225.4799999999996 728.5779999999999C1225.8499999999995 729.4959999999999 1225.8499999999995 732.6169999999998 1225.2099999999996 732.6169999999998C1224.5599999999995 732.6169999999998 1223.9199999999996 730.0469999999998 1223.9199999999996 730.0469999999998L1221.8999999999996 728.0269999999998L1220.2499999999995 730.3219999999998L1218.4099999999996 729.9549999999998L1217.1299999999997 729.0369999999998C1217.1299999999997 729.0369999999998 1213.1799999999996 728.8529999999998 1212.9999999999995 727.5679999999998C1212.8099999999995 726.2829999999998 1210.5199999999995 724.8139999999997 1210.5199999999995 723.2539999999998C1210.5199999999995 721.6929999999998 1209.5099999999995 719.1229999999998 1210.3299999999995 718.5719999999998C1211.1599999999994 718.0209999999997 1211.1599999999994 718.9389999999997 1211.9899999999996 718.4799999999998C1212.8099999999995 718.0209999999998 1212.5399999999995 717.2869999999998 1214.0099999999995 717.2869999999998C1215.4699999999996 717.2869999999998 1216.9399999999996 716.4609999999998 1217.3999999999996 715.7269999999999C1217.8599999999997 714.9919999999998 1219.6099999999997 709.5759999999999 1221.2599999999995 709.5759999999999C1222.9099999999996 709.5759999999999 1225.0399999999995 707.915 1223.2799999999995 710.0349999999999ZM1219.04 705.481C1223.08 702.727 1225.72 703.151 1227.3799999999999 703.453C1228.3899999999999 703.637 1230.4699999999998 703.8539999999999 1230.4699999999998 703.8539999999999L1227.9799999999998 707.704L1226.2999999999997 707.2439999999999C1226.2999999999997 707.2439999999999 1221.9299999999998 710.1769999999999 1220.6299999999997 707.9699999999999C1219.3299999999997 705.7629999999999 1217.6999999999996 708.3209999999999 1215.1699999999996 710.463C1212.6399999999996 712.605 1214.9999999999995 708.235 1219.0399999999995 705.481ZM1236.31 729.772C1236.77 730.5980000000001 1239.8 731.057 1238.52 730.873C1237.23 730.6890000000001 1237.51 733.3520000000001 1235.85 733.076C1234.1999999999998 732.801 1233.37 733.902 1231.7199999999998 733.902C1230.3199999999997 733.902 1228.3299999999997 732.3420000000001 1227.7799999999997 731.6990000000001C1227.2199999999998 731.057 1229.0599999999997 731.6070000000001 1229.7899999999997 730.5980000000001C1230.5299999999997 729.5880000000001 1230.7999999999997 729.772 1231.7199999999998 729.5880000000001C1232.6399999999999 729.4040000000001 1232.5499999999997 728.5780000000001 1233.2799999999997 728.4860000000001C1234.0199999999998 728.3940000000001 1235.8499999999997 728.945 1236.3099999999997 729.772ZM1222.5972 711.76689C1222.80397 711.83038 1222.69447 711.8695299999999 1222.5972 711.76689Z " fill="#ffffff" transform="matrix(1,0,0,1,-1204,-697)"></path></svg>
