<svg id="SvgjsSvg1008" xmlns="http://www.w3.org/2000/svg" version="1.1" xmlns:xlink="http://www.w3.org/1999/xlink" xmlns:svgjs="http://svgjs.com/svgjs" width="22" height="25"><defs id="SvgjsDefs1009"></defs><path id="SvgjsPath1010" d="M416.453 404.501L430.322 404.501L430.322 412.976C430.322 414.253 429.288 415.288 428.011 415.288L427.24 415.288L427.24 418.37C427.24 419.217 426.547 419.911 425.699 419.911C424.851 419.911 424.158 419.217 424.158 418.37L424.158 415.288L422.617 415.288L422.617 418.37C422.617 419.217 421.92400000000004 419.911 421.076 419.911C420.228 419.911 419.535 419.217 419.535 418.37L419.535 415.288L418.76500000000004 415.288C417.48800000000006 415.288 416.45300000000003 414.253 416.45300000000003 412.976ZM430.279 402.96L416.496 402.96C416.77 400.481 418.34999999999997 398.397 420.532 397.40999999999997L419.55699999999996 395.53599999999994C419.50699999999995 395.44199999999995 419.54499999999996 395.32499999999993 419.638 395.27599999999995C419.733 395.227 419.84999999999997 395.26399999999995 419.899 395.35799999999995L420.889 397.25999999999993C421.664 396.9599999999999 422.507 396.79599999999994 423.38800000000003 396.79599999999994C424.269 396.79599999999994 425.11100000000005 396.9599999999999 425.88700000000006 397.25999999999993L426.87700000000007 395.35799999999995C426.92600000000004 395.26399999999995 427.0420000000001 395.227 427.13700000000006 395.27599999999995C427.2300000000001 395.32499999999993 427.26800000000003 395.44199999999995 427.2180000000001 395.53599999999994L426.24300000000005 397.40999999999997C428.42500000000007 398.397 430.00600000000003 400.481 430.27900000000005 402.96ZM434.175 404.501L434.175 410.66499999999996C434.175 411.51199999999994 433.482 412.20599999999996 432.634 412.20599999999996C431.786 412.20599999999996 431.093 411.51199999999994 431.093 410.66499999999996L431.093 404.501C431.093 403.65299999999996 431.786 402.96 432.634 402.96C433.482 402.96 434.175 403.65299999999996 434.175 404.501ZM415.683 404.501L415.683 410.66499999999996C415.683 411.51199999999994 414.99 412.20599999999996 414.141 412.20599999999996C413.29400000000004 412.20599999999996 412.601 411.51199999999994 412.601 410.66499999999996L412.601 404.501C412.601 403.65299999999996 413.294 402.96 414.141 402.96C414.99 402.96 415.683 403.65299999999996 415.683 404.501ZM421.423 400.648C421.423 400.031 420.923 399.531 420.306 399.531C419.68899999999996 399.531 419.188 400.031 419.188 400.648C419.188 401.26500000000004 419.68899999999996 401.76500000000004 420.306 401.76500000000004C420.923 401.76500000000004 421.423 401.26500000000004 421.423 400.648ZM427.587 400.648C427.587 400.031 427.087 399.531 426.46999999999997 399.531C425.85299999999995 399.531 425.352 400.031 425.352 400.648C425.352 401.26500000000004 425.85299999999995 401.76500000000004 426.46999999999997 401.76500000000004C427.087 401.76500000000004 427.587 401.26500000000004 427.587 400.648Z " fill="#f4f4f4" transform="matrix(1,0,0,1,-413,-395)"></path></svg>
